<svg id="diagram" width="100%" xmlns="http://www.w3.org/2000/svg" xmlns:xlink="http://www.w3.org/1999/xlink" aria-labelledby="chart-title-diagram chart-desc-diagram" height="497" style="/* max-width: 398.0625px; */" viewBox="-2.51953125 0 398.0625 497" preserveAspectRatio="xMinYMin">
	<title id="chart-title-diagram">
	</title>
	<desc id="chart-desc-diagram">
	</desc>
	<style>
		#diagram {font-family:"trebuchet ms",verdana,arial,sans-serif;font-size:16px;fill:#333;}#diagram .error-icon{fill:#552222;}#diagram .error-text{fill:#552222;stroke:#552222;}#diagram .edge-thickness-normal{stroke-width:2px;}#diagram .edge-thickness-thick{stroke-width:3.5px;}#diagram .edge-pattern-solid{stroke-dasharray:0;}#diagram .edge-pattern-dashed{stroke-dasharray:3;}#diagram .edge-pattern-dotted{stroke-dasharray:2;}#diagram .marker{fill:#333333;stroke:#333333;}#diagram .marker.cross{stroke:#333333;}#diagram svg{font-family:"trebuchet ms",verdana,arial,sans-serif;font-size:16px;}#diagram .label{font-family:"trebuchet ms",verdana,arial,sans-serif;color:#333;}#diagram .cluster-label text{fill:#333;}#diagram .cluster-label span{color:#333;}#diagram .label text,#diagram span{fill:#333;color:#333;}#diagram .node rect,#diagram .node circle,#diagram .node ellipse,#diagram .node polygon,#diagram .node path{fill:#ECECFF;stroke:#9370DB;stroke-width:1px;}#diagram .node .label{text-align:center;}#diagram .node.clickable{cursor:pointer;}#diagram .arrowheadPath{fill:#333333;}#diagram .edgePath .path{stroke:#333333;stroke-width:2.0px;}#diagram .flowchart-link{stroke:#333333;fill:none;}#diagram .edgeLabel{background-color:#e8e8e8;text-align:center;}#diagram .edgeLabel rect{opacity:0.5;background-color:#e8e8e8;fill:#e8e8e8;}#diagram .cluster rect{fill:#ffffde;stroke:#aaaa33;stroke-width:1px;}#diagram .cluster text{fill:#333;}#diagram .cluster span{color:#333;}#diagram div.mermaidTooltip{position:absolute;text-align:center;max-width:200px;padding:2px;font-family:"trebuchet ms",verdana,arial,sans-serif;font-size:12px;background:hsl(80, 100%, 96.2745098039%);border:1px solid #aaaa33;border-radius:2px;pointer-events:none;z-index:100;}#diagram :root{--mermaid-font-family:"trebuchet ms",verdana,arial,sans-serif;}
	</style>
	<g>
		<g class="output">
			<g class="clusters">
			</g>
			<g class="edgePaths">
				<g class="edgePath LS-styles LE-helpers" style="opacity: 1;" id="L-styles-helpers">
					<path class="path" d="M168.8369968220339,46.5L170.15452860169492,50.666666666666664C171.47206038135596,54.833333333333336,174.10712394067798,63.166666666666664,175.42465572033902,71.5C176.7421875,79.83333333333333,176.7421875,88.16666666666667,176.7421875,92.33333333333333L176.7421875,96.5" marker-end="url(#arrowhead77)" style="fill:none">
					</path>
					<defs>
						<marker id="arrowhead77" viewBox="0 0 10 10" refX="9" refY="5" markerUnits="strokeWidth" markerWidth="8" markerHeight="6" orient="auto">
							<path d="M 0 0 L 10 5 L 0 10 z" class="arrowheadPath" style="stroke-width: 1; stroke-dasharray: 1, 0;">
							</path>
						</marker>
					</defs>
				</g>
				<g class="edgePath LS-styles LE-basics" style="opacity: 1;" id="L-styles-basics">
					<path class="path" d="M193.06640625,42.985360824742266L202.22265625,47.73780068728522C211.37890625,52.49024054982817,229.69140625,61.995120274914086,238.84765625,74.12256013745704C248.00390625,86.25,248.00390625,101,248.00390625,115.75C248.00390625,130.5,248.00390625,145.25,248.9455258356874,156.79166666666666C249.88714542137475,168.33333333333334,251.77038459274954,176.66666666666666,252.71200417843693,180.83333333333334L253.6536237641243,185" marker-end="url(#arrowhead78)" style="fill:none">
					</path>
					<defs>
						<marker id="arrowhead78" viewBox="0 0 10 10" refX="9" refY="5" markerUnits="strokeWidth" markerWidth="8" markerHeight="6" orient="auto">
							<path d="M 0 0 L 10 5 L 0 10 z" class="arrowheadPath" style="stroke-width: 1; stroke-dasharray: 1, 0;">
							</path>
						</marker>
					</defs>
				</g>
				<g class="edgePath LS-styles LE-layouts" style="opacity: 1;" id="L-styles-layouts">
					<path class="path" d="M137.83613612288136,46.5L132.4435248940678,50.666666666666664C127.05091366525424,54.833333333333336,116.26569120762713,63.166666666666664,110.87307997881356,74.70833333333333C105.48046875,86.25,105.48046875,101,105.48046875,115.75C105.48046875,130.5,105.48046875,145.25,105.48046875,160C105.48046875,174.75,105.48046875,189.5,105.48046875,204.25C105.48046875,219,105.48046875,233.75,117.05045572916667,246.0008323877904C128.62044270833334,258.2516647755808,151.76041666666666,268.00332955116164,163.33040364583334,272.87916193895205L174.900390625,277.75499432674246" marker-end="url(#arrowhead79)" style="fill:none">
					</path>
					<defs>
						<marker id="arrowhead79" viewBox="0 0 10 10" refX="9" refY="5" markerUnits="strokeWidth" markerWidth="8" markerHeight="6" orient="auto">
							<path d="M 0 0 L 10 5 L 0 10 z" class="arrowheadPath" style="stroke-width: 1; stroke-dasharray: 1, 0;">
							</path>
						</marker>
					</defs>
				</g>
				<g class="edgePath LS-styles LE-components" style="opacity: 1;" id="L-styles-components">
					<path class="path" d="M132.43359375,44.611318942419494L124.60807291666667,49.09276578534958C116.78255208333333,53.57421262827967,101.13151041666667,62.537106314139834,93.30598958333333,74.39355315706992C85.48046875,86.25,85.48046875,101,85.48046875,115.75C85.48046875,130.5,85.48046875,145.25,85.48046875,160C85.48046875,174.75,85.48046875,189.5,85.48046875,204.25C85.48046875,219,85.48046875,233.75,85.48046875,248.5C85.48046875,263.25,85.48046875,278,85.48046875,292.75C85.48046875,307.5,85.48046875,322.25,118.10416666666667,335.4248595395408C150.72786458333334,348.5997190790816,215.97526041666666,360.1994381581632,248.59895833333334,365.999297697704L281.22265625,371.7991572372448" marker-end="url(#arrowhead80)" style="fill:none">
					</path>
					<defs>
						<marker id="arrowhead80" viewBox="0 0 10 10" refX="9" refY="5" markerUnits="strokeWidth" markerWidth="8" markerHeight="6" orient="auto">
							<path d="M 0 0 L 10 5 L 0 10 z" class="arrowheadPath" style="stroke-width: 1; stroke-dasharray: 1, 0;">
							</path>
						</marker>
					</defs>
				</g>
				<g class="edgePath LS-styles LE-widgets" style="opacity: 1;" id="L-styles-widgets">
					<path class="path" d="M132.43359375,35.77994833710042L111.27473958333333,41.73329028091702C90.11588541666667,47.686632224733614,47.798177083333336,59.59331611236681,26.639322916666668,72.9216580561834C5.48046875,86.25,5.48046875,101,5.48046875,115.75C5.48046875,130.5,5.48046875,145.25,5.48046875,160C5.48046875,174.75,5.48046875,189.5,5.48046875,204.25C5.48046875,219,5.48046875,233.75,5.48046875,248.5C5.48046875,263.25,5.48046875,278,5.48046875,292.75C5.48046875,307.5,5.48046875,322.25,5.48046875,337C5.48046875,351.75,5.48046875,366.5,5.48046875,381.25C5.48046875,396,5.48046875,410.75,9.24694709274953,422.2916666666667C13.013425435499059,433.8333333333333,20.546382120998118,442.1666666666667,24.312860463747644,446.3333333333333L28.079338806497177,450.5" marker-end="url(#arrowhead81)" style="fill:none">
					</path>
					<defs>
						<marker id="arrowhead81" viewBox="0 0 10 10" refX="9" refY="5" markerUnits="strokeWidth" markerWidth="8" markerHeight="6" orient="auto">
							<path d="M 0 0 L 10 5 L 0 10 z" class="arrowheadPath" style="stroke-width: 1; stroke-dasharray: 1, 0;">
							</path>
						</marker>
					</defs>
				</g>
				<g class="edgePath LS-helpers LE-basics" style="opacity: 1;" id="L-helpers-basics">
					<path class="path" d="M213.00390625,131.11202060621926L224.36881510416666,135.92668383851606C235.73372395833334,140.74134707081285,258.4635416666667,150.37067353540644,267.6448861964454,159.3520034343699C276.8262307262241,168.33333333333334,272.4591020774482,176.66666666666666,270.27553775306023,180.83333333333334L268.0919734286723,185" marker-end="url(#arrowhead82)" style="fill:none">
					</path>
					<defs>
						<marker id="arrowhead82" viewBox="0 0 10 10" refX="9" refY="5" markerUnits="strokeWidth" markerWidth="8" markerHeight="6" orient="auto">
							<path d="M 0 0 L 10 5 L 0 10 z" class="arrowheadPath" style="stroke-width: 1; stroke-dasharray: 1, 0;">
							</path>
						</marker>
					</defs>
				</g>
				<g class="edgePath LS-helpers LE-layouts" style="opacity: 1;" id="L-helpers-layouts">
					<path class="path" d="M176.7421875,135L176.7421875,139.16666666666666C176.7421875,143.33333333333334,176.7421875,151.66666666666666,176.7421875,163.20833333333334C176.7421875,174.75,176.7421875,189.5,176.7421875,204.25C176.7421875,219,176.7421875,233.75,179.91923405131828,245.29166666666666C183.09628060263654,256.8333333333333,189.45037370527305,265.1666666666667,192.62742025659134,269.3333333333333L195.8044668079096,273.5" marker-end="url(#arrowhead83)" style="fill:none">
					</path>
					<defs>
						<marker id="arrowhead83" viewBox="0 0 10 10" refX="9" refY="5" markerUnits="strokeWidth" markerWidth="8" markerHeight="6" orient="auto">
							<path d="M 0 0 L 10 5 L 0 10 z" class="arrowheadPath" style="stroke-width: 1; stroke-dasharray: 1, 0;">
							</path>
						</marker>
					</defs>
				</g>
				<g class="edgePath LS-helpers LE-components" style="opacity: 1;" id="L-helpers-components">
					<path class="path" d="M213.00390625,126.61815403746428L231.56705729166666,132.18179503122022C250.13020833333334,137.7454360249762,287.2565104166667,148.8727180124881,305.8196614583333,161.81135900624403C324.3828125,174.75,324.3828125,189.5,324.3828125,204.25C324.3828125,219,324.3828125,233.75,324.3828125,248.5C324.3828125,263.25,324.3828125,278,324.3828125,292.75C324.3828125,307.5,324.3828125,322.25,325.3244320856874,333.7916666666667C326.2660516713748,345.3333333333333,328.1492908427495,353.6666666666667,329.0909104284369,357.8333333333333L330.0325300141243,362" marker-end="url(#arrowhead84)" style="fill:none">
					</path>
					<defs>
						<marker id="arrowhead84" viewBox="0 0 10 10" refX="9" refY="5" markerUnits="strokeWidth" markerWidth="8" markerHeight="6" orient="auto">
							<path d="M 0 0 L 10 5 L 0 10 z" class="arrowheadPath" style="stroke-width: 1; stroke-dasharray: 1, 0;">
							</path>
						</marker>
					</defs>
				</g>
				<g class="edgePath LS-helpers LE-widgets" style="opacity: 1;" id="L-helpers-widgets">
					<path class="path" d="M140.48046875,126.35797846241252L121.31380208333333,131.96498205201044C102.14713541666667,137.57198564160834,63.813802083333336,148.78599282080418,44.647135416666664,161.7679964104021C25.48046875,174.75,25.48046875,189.5,25.48046875,204.25C25.48046875,219,25.48046875,233.75,25.48046875,248.5C25.48046875,263.25,25.48046875,278,25.48046875,292.75C25.48046875,307.5,25.48046875,322.25,25.48046875,337C25.48046875,351.75,25.48046875,366.5,25.48046875,381.25C25.48046875,396,25.48046875,410.75,27.363707921374765,422.2916666666667C29.246947092749526,433.8333333333333,33.01342543549906,442.1666666666667,34.89666460687382,446.3333333333333L36.77990377824859,450.5" marker-end="url(#arrowhead85)" style="fill:none">
					</path>
					<defs>
						<marker id="arrowhead85" viewBox="0 0 10 10" refX="9" refY="5" markerUnits="strokeWidth" markerWidth="8" markerHeight="6" orient="auto">
							<path d="M 0 0 L 10 5 L 0 10 z" class="arrowheadPath" style="stroke-width: 1; stroke-dasharray: 1, 0;">
							</path>
						</marker>
					</defs>
				</g>
				<g class="edgePath LS-basics LE-layouts" style="opacity: 1;" id="L-basics-layouts">
					<path class="path" d="M258.00390625,223.5L258.00390625,227.66666666666666C258.00390625,231.83333333333334,258.00390625,240.16666666666666,253.5291902071563,248.5C249.0544741643126,256.8333333333333,240.10504207862525,265.1666666666667,235.63032603578154,269.3333333333333L231.15560999293785,273.5" marker-end="url(#arrowhead86)" style="fill:none">
					</path>
					<defs>
						<marker id="arrowhead86" viewBox="0 0 10 10" refX="9" refY="5" markerUnits="strokeWidth" markerWidth="8" markerHeight="6" orient="auto">
							<path d="M 0 0 L 10 5 L 0 10 z" class="arrowheadPath" style="stroke-width: 1; stroke-dasharray: 1, 0;">
							</path>
						</marker>
					</defs>
				</g>
				<g class="edgePath LS-basics LE-components" style="opacity: 1;" id="L-basics-components">
					<path class="path" d="M289.3828125,220.32471849138517L298.5494791666667,225.020598742821C307.7161458333333,229.7164789942568,326.0494791666667,239.10823949712838,335.2161458333333,251.1791197485642C344.3828125,263.25,344.3828125,278,344.3828125,292.75C344.3828125,307.5,344.3828125,322.25,343.4411929143126,333.7916666666667C342.4995733286252,345.3333333333333,340.6163341572505,353.6666666666667,339.6747145715631,357.8333333333333L338.7330949858757,362" marker-end="url(#arrowhead87)" style="fill:none">
					</path>
					<defs>
						<marker id="arrowhead87" viewBox="0 0 10 10" refX="9" refY="5" markerUnits="strokeWidth" markerWidth="8" markerHeight="6" orient="auto">
							<path d="M 0 0 L 10 5 L 0 10 z" class="arrowheadPath" style="stroke-width: 1; stroke-dasharray: 1, 0;">
							</path>
						</marker>
					</defs>
				</g>
				<g class="edgePath LS-basics LE-widgets" style="opacity: 1;" id="L-basics-widgets">
					<path class="path" d="M226.625,210.78347516818L196.43424479166666,217.06956264015C166.24348958333334,223.35565011211997,105.86197916666667,235.92782505606,75.67122395833333,249.58891252803002C45.48046875,263.25,45.48046875,278,45.48046875,292.75C45.48046875,307.5,45.48046875,322.25,45.48046875,337C45.48046875,351.75,45.48046875,366.5,45.48046875,381.25C45.48046875,396,45.48046875,410.75,45.48046875,422.2916666666667C45.48046875,433.8333333333333,45.48046875,442.1666666666667,45.48046875,446.3333333333333L45.48046875,450.5" marker-end="url(#arrowhead88)" style="fill:none">
					</path>
					<defs>
						<marker id="arrowhead88" viewBox="0 0 10 10" refX="9" refY="5" markerUnits="strokeWidth" markerWidth="8" markerHeight="6" orient="auto">
							<path d="M 0 0 L 10 5 L 0 10 z" class="arrowheadPath" style="stroke-width: 1; stroke-dasharray: 1, 0;">
							</path>
						</marker>
					</defs>
				</g>
				<g class="edgePath LS-layouts LE-components" style="opacity: 1;" id="L-layouts-components">
					<path class="path" d="M246.064453125,302.98067502569893L265.7841796875,308.6505625214158C285.50390625,314.3204500171326,324.943359375,325.66022500856633,341.83822718043785,335.4967791709498C358.73309498587577,345.3333333333333,353.0833774717514,353.6666666666667,350.2585187146893,357.8333333333333L347.4336599576271,362" marker-end="url(#arrowhead89)" style="fill:none">
					</path>
					<defs>
						<marker id="arrowhead89" viewBox="0 0 10 10" refX="9" refY="5" markerUnits="strokeWidth" markerWidth="8" markerHeight="6" orient="auto">
							<path d="M 0 0 L 10 5 L 0 10 z" class="arrowheadPath" style="stroke-width: 1; stroke-dasharray: 1, 0;">
							</path>
						</marker>
					</defs>
				</g>
				<g class="edgePath LS-layouts LE-widgets" style="opacity: 1;" id="L-layouts-widgets">
					<path class="path" d="M174.900390625,303.6085081019922L156.66373697916666,309.17375675166016C138.42708333333334,314.73900540132814,101.95377604166667,325.86950270066404,83.71712239583333,338.809751350332C65.48046875,351.75,65.48046875,366.5,65.48046875,381.25C65.48046875,396,65.48046875,410.75,63.59722957862524,422.2916666666667C61.71399040725047,433.8333333333333,57.94751206450095,442.1666666666667,56.06427289312618,446.3333333333333L54.18103372175141,450.5" marker-end="url(#arrowhead90)" style="fill:none">
					</path>
					<defs>
						<marker id="arrowhead90" viewBox="0 0 10 10" refX="9" refY="5" markerUnits="strokeWidth" markerWidth="8" markerHeight="6" orient="auto">
							<path d="M 0 0 L 10 5 L 0 10 z" class="arrowheadPath" style="stroke-width: 1; stroke-dasharray: 1, 0;">
							</path>
						</marker>
					</defs>
				</g>
				<g class="edgePath LS-components LE-widgets" style="opacity: 1;" id="L-components-widgets">
					<path class="path" d="M334.3828125,400.5L334.3828125,404.6666666666667C334.3828125,408.8333333333333,334.3828125,417.1666666666667,292.4791666666667,427.75154477480766C250.57552083333334,438.3364228829487,166.76822916666666,451.17284576589736,124.86458333333333,457.5910572073717L82.9609375,464.009268648846" marker-end="url(#arrowhead91)" style="fill:none">
					</path>
					<defs>
						<marker id="arrowhead91" viewBox="0 0 10 10" refX="9" refY="5" markerUnits="strokeWidth" markerWidth="8" markerHeight="6" orient="auto">
							<path d="M 0 0 L 10 5 L 0 10 z" class="arrowheadPath" style="stroke-width: 1; stroke-dasharray: 1, 0;">
							</path>
						</marker>
					</defs>
				</g>
			</g>
			<g class="edgeLabels">
				<g class="edgeLabel" style="opacity: 1;" transform="">
					<g transform="translate(0,0)" class="label">
						<rect rx="0" ry="0" width="0" height="0">
						</rect>
						<foreignobject width="0" height="0">
							<div xmlns="http://www.w3.org/1999/xhtml" style="display: inline-block; white-space: nowrap;">
								<span id="L-L-styles-helpers" class="edgeLabel L-LS-styles&#39; L-LE-helpers" style="">
								</span>
							</div>
						</foreignobject>
					</g>
				</g>
				<g class="edgeLabel" style="opacity: 1;" transform="">
					<g transform="translate(0,0)" class="label">
						<rect rx="0" ry="0" width="0" height="0">
						</rect>
						<foreignobject width="0" height="0">
							<div xmlns="http://www.w3.org/1999/xhtml" style="display: inline-block; white-space: nowrap;">
								<span id="L-L-styles-basics" class="edgeLabel L-LS-styles&#39; L-LE-basics" style="">
								</span>
							</div>
						</foreignobject>
					</g>
				</g>
				<g class="edgeLabel" style="opacity: 1;" transform="">
					<g transform="translate(0,0)" class="label">
						<rect rx="0" ry="0" width="0" height="0">
						</rect>
						<foreignobject width="0" height="0">
							<div xmlns="http://www.w3.org/1999/xhtml" style="display: inline-block; white-space: nowrap;">
								<span id="L-L-styles-layouts" class="edgeLabel L-LS-styles&#39; L-LE-layouts" style="">
								</span>
							</div>
						</foreignobject>
					</g>
				</g>
				<g class="edgeLabel" style="opacity: 1;" transform="">
					<g transform="translate(0,0)" class="label">
						<rect rx="0" ry="0" width="0" height="0">
						</rect>
						<foreignobject width="0" height="0">
							<div xmlns="http://www.w3.org/1999/xhtml" style="display: inline-block; white-space: nowrap;">
								<span id="L-L-styles-components" class="edgeLabel L-LS-styles&#39; L-LE-components" style="">
								</span>
							</div>
						</foreignobject>
					</g>
				</g>
				<g class="edgeLabel" style="opacity: 1;" transform="">
					<g transform="translate(0,0)" class="label">
						<rect rx="0" ry="0" width="0" height="0">
						</rect>
						<foreignobject width="0" height="0">
							<div xmlns="http://www.w3.org/1999/xhtml" style="display: inline-block; white-space: nowrap;">
								<span id="L-L-styles-widgets" class="edgeLabel L-LS-styles&#39; L-LE-widgets" style="">
								</span>
							</div>
						</foreignobject>
					</g>
				</g>
				<g class="edgeLabel" style="opacity: 1;" transform="">
					<g transform="translate(0,0)" class="label">
						<rect rx="0" ry="0" width="0" height="0">
						</rect>
						<foreignobject width="0" height="0">
							<div xmlns="http://www.w3.org/1999/xhtml" style="display: inline-block; white-space: nowrap;">
								<span id="L-L-helpers-basics" class="edgeLabel L-LS-helpers&#39; L-LE-basics" style="">
								</span>
							</div>
						</foreignobject>
					</g>
				</g>
				<g class="edgeLabel" style="opacity: 1;" transform="">
					<g transform="translate(0,0)" class="label">
						<rect rx="0" ry="0" width="0" height="0">
						</rect>
						<foreignobject width="0" height="0">
							<div xmlns="http://www.w3.org/1999/xhtml" style="display: inline-block; white-space: nowrap;">
								<span id="L-L-helpers-layouts" class="edgeLabel L-LS-helpers&#39; L-LE-layouts" style="">
								</span>
							</div>
						</foreignobject>
					</g>
				</g>
				<g class="edgeLabel" style="opacity: 1;" transform="">
					<g transform="translate(0,0)" class="label">
						<rect rx="0" ry="0" width="0" height="0">
						</rect>
						<foreignobject width="0" height="0">
							<div xmlns="http://www.w3.org/1999/xhtml" style="display: inline-block; white-space: nowrap;">
								<span id="L-L-helpers-components" class="edgeLabel L-LS-helpers&#39; L-LE-components" style="">
								</span>
							</div>
						</foreignobject>
					</g>
				</g>
				<g class="edgeLabel" style="opacity: 1;" transform="">
					<g transform="translate(0,0)" class="label">
						<rect rx="0" ry="0" width="0" height="0">
						</rect>
						<foreignobject width="0" height="0">
							<div xmlns="http://www.w3.org/1999/xhtml" style="display: inline-block; white-space: nowrap;">
								<span id="L-L-helpers-widgets" class="edgeLabel L-LS-helpers&#39; L-LE-widgets" style="">
								</span>
							</div>
						</foreignobject>
					</g>
				</g>
				<g class="edgeLabel" style="opacity: 1;" transform="">
					<g transform="translate(0,0)" class="label">
						<rect rx="0" ry="0" width="0" height="0">
						</rect>
						<foreignobject width="0" height="0">
							<div xmlns="http://www.w3.org/1999/xhtml" style="display: inline-block; white-space: nowrap;">
								<span id="L-L-basics-layouts" class="edgeLabel L-LS-basics&#39; L-LE-layouts" style="">
								</span>
							</div>
						</foreignobject>
					</g>
				</g>
				<g class="edgeLabel" style="opacity: 1;" transform="">
					<g transform="translate(0,0)" class="label">
						<rect rx="0" ry="0" width="0" height="0">
						</rect>
						<foreignobject width="0" height="0">
							<div xmlns="http://www.w3.org/1999/xhtml" style="display: inline-block; white-space: nowrap;">
								<span id="L-L-basics-components" class="edgeLabel L-LS-basics&#39; L-LE-components" style="">
								</span>
							</div>
						</foreignobject>
					</g>
				</g>
				<g class="edgeLabel" style="opacity: 1;" transform="">
					<g transform="translate(0,0)" class="label">
						<rect rx="0" ry="0" width="0" height="0">
						</rect>
						<foreignobject width="0" height="0">
							<div xmlns="http://www.w3.org/1999/xhtml" style="display: inline-block; white-space: nowrap;">
								<span id="L-L-basics-widgets" class="edgeLabel L-LS-basics&#39; L-LE-widgets" style="">
								</span>
							</div>
						</foreignobject>
					</g>
				</g>
				<g class="edgeLabel" style="opacity: 1;" transform="">
					<g transform="translate(0,0)" class="label">
						<rect rx="0" ry="0" width="0" height="0">
						</rect>
						<foreignobject width="0" height="0">
							<div xmlns="http://www.w3.org/1999/xhtml" style="display: inline-block; white-space: nowrap;">
								<span id="L-L-layouts-components" class="edgeLabel L-LS-layouts&#39; L-LE-components" style="">
								</span>
							</div>
						</foreignobject>
					</g>
				</g>
				<g class="edgeLabel" style="opacity: 1;" transform="">
					<g transform="translate(0,0)" class="label">
						<rect rx="0" ry="0" width="0" height="0">
						</rect>
						<foreignobject width="0" height="0">
							<div xmlns="http://www.w3.org/1999/xhtml" style="display: inline-block; white-space: nowrap;">
								<span id="L-L-layouts-widgets" class="edgeLabel L-LS-layouts&#39; L-LE-widgets" style="">
								</span>
							</div>
						</foreignobject>
					</g>
				</g>
				<g class="edgeLabel" style="opacity: 1;" transform="">
					<g transform="translate(0,0)" class="label">
						<rect rx="0" ry="0" width="0" height="0">
						</rect>
						<foreignobject width="0" height="0">
							<div xmlns="http://www.w3.org/1999/xhtml" style="display: inline-block; white-space: nowrap;">
								<span id="L-L-components-widgets" class="edgeLabel L-LS-components&#39; L-LE-widgets" style="">
								</span>
							</div>
						</foreignobject>
					</g>
				</g>
			</g>
			<g class="nodes">
				<g class="node default" style="opacity: 1;" id="flowchart-styles-30" transform="translate(162.75,27.25)">
					<rect rx="0" ry="0" x="-30.31640625" y="-19.25" width="60.6328125" height="38.5" class="label-container">
					</rect>
					<g class="label" transform="translate(0,0)">
						<g transform="translate(-20.31640625,-9.25)">
							<foreignobject width="40.6328125" height="18.5">
								<div xmlns="http://www.w3.org/1999/xhtml" style="display: inline-block; white-space: nowrap;">
									styles
								</div>
							</foreignobject>
						</g>
					</g>
				</g>
				<g class="node default" style="opacity: 1;" id="flowchart-helpers-31" transform="translate(176.7421875,115.75)">
					<rect rx="0" ry="0" x="-36.26171875" y="-19.25" width="72.5234375" height="38.5" class="label-container">
					</rect>
					<g class="label" transform="translate(0,0)">
						<g transform="translate(-26.26171875,-9.25)">
							<foreignobject width="52.5234375" height="18.5">
								<div xmlns="http://www.w3.org/1999/xhtml" style="display: inline-block; white-space: nowrap;">
									helpers
								</div>
							</foreignobject>
						</g>
					</g>
				</g>
				<g class="node default" style="opacity: 1;" id="flowchart-basics-33" transform="translate(258.00390625,204.25)">
					<rect rx="0" ry="0" x="-31.37890625" y="-19.25" width="62.7578125" height="38.5" class="label-container">
					</rect>
					<g class="label" transform="translate(0,0)">
						<g transform="translate(-21.37890625,-9.25)">
							<foreignobject width="42.7578125" height="18.5">
								<div xmlns="http://www.w3.org/1999/xhtml" style="display: inline-block; white-space: nowrap;">
									basics
								</div>
							</foreignobject>
						</g>
					</g>
				</g>
				<g class="node default" style="opacity: 1;" id="flowchart-layouts-35" transform="translate(210.482421875,292.75)">
					<rect rx="0" ry="0" x="-35.58203125" y="-19.25" width="71.1640625" height="38.5" class="label-container">
					</rect>
					<g class="label" transform="translate(0,0)">
						<g transform="translate(-25.58203125,-9.25)">
							<foreignobject width="51.1640625" height="18.5">
								<div xmlns="http://www.w3.org/1999/xhtml" style="display: inline-block; white-space: nowrap;">
									layouts
								</div>
							</foreignobject>
						</g>
					</g>
				</g>
				<g class="node default" style="opacity: 1;" id="flowchart-components-37" transform="translate(334.3828125,381.25)">
					<rect rx="0" ry="0" x="-53.16015625" y="-19.25" width="106.3203125" height="38.5" class="label-container">
					</rect>
					<g class="label" transform="translate(0,0)">
						<g transform="translate(-43.16015625,-9.25)">
							<foreignobject width="86.3203125" height="18.5">
								<div xmlns="http://www.w3.org/1999/xhtml" style="display: inline-block; white-space: nowrap;">
									components
								</div>
							</foreignobject>
						</g>
					</g>
				</g>
				<g class="node default" style="opacity: 1;" id="flowchart-widgets-39" transform="translate(45.48046875,469.75)">
					<rect rx="0" ry="0" x="-37.48046875" y="-19.25" width="74.9609375" height="38.5" class="label-container">
					</rect>
					<g class="label" transform="translate(0,0)">
						<g transform="translate(-27.48046875,-9.25)">
							<foreignobject width="54.9609375" height="18.5">
								<div xmlns="http://www.w3.org/1999/xhtml" style="display: inline-block; white-space: nowrap;">
									widgets
								</div>
							</foreignobject>
						</g>
					</g>
				</g>
			</g>
		</g>
	</g>
</svg>
